Coordinates
version=1
nRows=6
nColumns=36
inDegrees=yes

Units are S.I. units (second, meters, Newtons, ...)
If the header above contains a line with 'inDegrees', this indicates whether rotational values are in degrees (yes) or radians (no).

endheader
time	pelvis_tilt	pelvis_list	pelvis_rotation	pelvis_tx	pelvis_ty	pelvis_tz	hip_flexion_r	hip_adduction_r	hip_rotation_r	knee_angle_r	knee_angle_r_beta	ankle_angle_r	subtalar_angle_r	mtp_angle_r	hip_flexion_l	hip_adduction_l	hip_rotation_l	knee_angle_l	knee_angle_l_beta	ankle_angle_l	subtalar_angle_l	mtp_angle_l	lumbar_extension	lumbar_bending	lumbar_rotation	arm_flex_r	arm_add_r	arm_rot_r	elbow_flex_r	pro_sup_r	arm_flex_l	arm_add_l	arm_rot_l	elbow_flex_l	pro_sup_l
     14.90000000	     -3.93732333	     -2.82978605	     -1.64112685	      1.03741313	      0.91694178	      0.72809309	     26.71135404	      1.63800640	      7.02869621	     15.52332160	      0.27093307	      2.13823740	      1.37501060	     -7.49999987	     -6.16610979	     -3.10223443	     -1.92388162	     22.06007593	      0.38502096	     21.29198920	     -2.56381217	     -7.49999987	     -7.70513848	      4.85066966	     -1.32099488	      3.64342976	    -13.04003572	      4.95373754	     17.54810668	     91.76258169	     14.55228459	     -9.28771544	     10.51213617	     24.61495438	     85.11004030
     14.91666670	     -3.50670137	     -3.32746381	     -1.75038543	      1.03954212	      0.92090285	      0.73163172	     25.50675134	      2.43180952	      7.51887160	     16.23893402	      0.28342287	      1.98755626	      0.16810754	     -7.49999987	     -6.70206996	     -3.88500343	     -2.17338834	     23.92704487	      0.41760571	     19.98323388	     -3.62093369	     -7.49999987	     -7.88092862	      5.55375453	     -0.75491428	      3.43951889	    -13.38872344	      4.71866183	     16.88113762	     91.86128993	     14.48478283	     -8.63548804	     10.16365262	     23.62309130	     85.12136200
     14.93333330	     -3.33880357	     -3.73104438	     -1.87531210	      1.03721912	      0.92199655	      0.73572479	     24.72805737	      3.16031177	      7.97831887	     17.12755318	      0.29893220	      2.57562588	     -0.69793108	     -7.49999987	     -6.41867606	     -4.67776767	     -2.40583458	     26.59041190	      0.46409024	     18.54243575	     -4.61056139	     -7.49999987	     -7.84605050	      6.18630795	     -0.26804896	      3.34046598	    -13.65320576	      4.50713433	     16.27725059	     91.41681778	     14.39724936	     -8.13401855	      9.80615653	     22.54786251	     84.86920496
     14.95000000	     -3.02761322	     -4.11533206	     -1.93254145	      1.03320520	      0.92242077	      0.74105442	     23.80989721	      3.90232328	      8.39410723	     17.98575249	      0.31391060	      3.54038995	     -1.46638055	     -7.49999987	     -5.76066404	     -5.53048622	     -2.49430866	     30.01761543	      0.52390622	     16.75628137	     -5.63832986	     -7.49999987	     -8.26294831	      6.76818135	      0.24617323	      3.29927808	    -13.86935872	      4.53296951	     16.11427733	     90.95718481	     14.38131255	     -7.80557791	      9.67009737	     22.19607494	     84.53695002
     14.96666670	     -2.70992259	     -4.48635598	     -2.04868810	      1.03221245	      0.92682142	      0.74767487	     22.79970502	      4.72031490	      8.78642024	     18.80609038	      0.32822820	      4.88475721	     -2.06035986	     -7.49999987	     -4.80345007	     -6.49652514	     -2.82092585	     33.97271364	      0.59293571	     14.54530233	     -6.12815347	     -7.49999987	     -8.69007546	      7.27213225	      0.67740803	      3.47058659	    -13.95069554	      4.57268164	     15.95246160	     91.02972718	     14.29845835	     -7.72577940	      9.60419741	     21.91257526	     84.60379144
     14.98333330	     -2.65363085	     -4.90997855	     -2.06268033	      1.03482695	      0.93560106	      0.75361217	     21.81227304	      5.58926639	      8.97286436	     19.28363925	      0.33656300	      6.05326663	     -2.75145422	     -7.49999987	     -3.44310466	     -7.42366279	     -2.56772893	     38.01074414	      0.66341264	     11.45375423	     -7.32334610	     -7.49999987	     -8.56629294	      7.78976695	      1.20940188	      3.60425673	    -14.00035425	      5.38974661	     15.16630404	     91.20950609	     14.48045360	     -7.38872488	      9.29388383	     20.53344416	     84.99280413
